<svg width="131" height="73" viewBox="0 0 131 73" fill="none" xmlns="http://www.w3.org/2000/svg">
<path d="M16.0818 16.0734V28.4633H109.055C110.73 28.4633 112.182 27.9053 113.41 26.789C114.751 25.5612 115.421 24.0544 115.421 22.2683C115.421 20.594 114.751 19.1429 113.41 17.9151C112.182 16.6874 110.73 16.0734 109.055 16.0734H16.0818ZM108.385 0C111.512 0 114.416 0.613991 117.096 1.84174C119.888 2.95803 122.289 4.52064 124.299 6.52982C126.421 8.53899 128.04 10.883 129.157 13.5619C130.386 16.2408 131 19.1429 131 22.2683C131 25.3938 130.386 28.2959 129.157 30.9748C128.04 33.6537 126.421 35.9977 124.299 38.0069C122.289 40.0161 119.888 41.6346 117.096 42.8624C114.416 43.9787 111.512 44.5367 108.385 44.5367H16.0818V64.9633C16.0818 67.1956 15.2442 69.0934 13.5691 70.656C12.0055 72.2186 10.1628 73 8.04092 73C5.80734 73 3.90877 72.2186 2.34527 70.656C0.781764 69.0934 0 67.1956 0 64.9633V8.03669C0 5.80436 0.781764 3.90665 2.34527 2.34404C3.90877 0.781424 5.80734 0 8.04092 0H108.385Z" fill="#FF1515"/>
<path d="M54.4199 60.2897C54.9304 60.2897 55.3645 60.4683 55.7218 60.8254C56.0791 61.1825 56.2578 61.6164 56.2578 62.1266C56.2578 62.6368 56.0791 63.0707 55.7218 63.4278C55.3645 63.7849 54.9304 63.9636 54.4199 63.9636H35.3514C34.841 63.9636 34.4069 63.7849 34.0496 63.4278C33.6923 63.0707 33.5135 62.6368 33.5135 62.1266C33.5135 61.6164 33.6923 61.1825 34.0496 60.8254C34.4069 60.4683 34.841 60.2897 35.3514 60.2897H54.4199ZM34.9303 57.4577C34.0369 57.4577 33.3094 57.6234 32.7477 57.9552C32.2117 58.2613 31.7778 58.644 31.4459 59.1033C31.1395 59.5625 30.9225 60.0727 30.7949 60.6341C30.6927 61.1699 30.6418 61.6674 30.6418 62.1266C30.6418 62.5859 30.6927 63.096 30.7949 63.6574C30.9225 64.1932 31.1395 64.6907 31.4459 65.15C31.7778 65.6092 32.2117 66.0046 32.7477 66.3363C33.3094 66.6425 34.0369 66.7956 34.9303 66.7956H56.0281C56.5386 66.7956 56.9727 66.9742 57.33 67.3313C57.6873 67.6884 57.866 68.1223 57.866 68.6325C57.866 69.1427 57.6873 69.5766 57.33 69.9337C56.9727 70.2908 56.5386 70.4695 56.0281 70.4695H33.705C32.6585 70.4695 31.7266 70.2143 30.9098 69.7041C30.093 69.1939 29.3909 68.5433 28.8038 67.7523C28.2422 66.936 27.8083 66.0302 27.502 65.0351C27.1957 64.0401 27.0425 63.0707 27.0425 62.1266C27.0425 61.1572 27.1957 60.1875 27.502 59.2181C27.8339 58.2231 28.3061 57.3302 28.9187 56.5392C29.5314 55.7228 30.2715 55.0593 31.1395 54.5492C32.0075 54.039 32.9901 53.7838 34.0879 53.7838H56.0281C56.5386 53.7838 56.9727 53.9624 57.33 54.3195C57.6873 54.6766 57.866 55.1105 57.866 55.6207C57.866 56.1309 57.6873 56.5648 57.33 56.9219C56.9727 57.279 56.5386 57.4577 56.0281 57.4577H34.9303ZM91.6484 68.6325C91.6484 69.1427 91.4697 69.5766 91.1124 69.9337C90.7548 70.2908 90.321 70.4695 89.8105 70.4695C89.5552 70.4695 89.3254 70.4185 89.1213 70.3164C88.9169 70.2143 88.7255 70.0868 88.5469 69.9337C88.3938 69.7806 88.2789 69.6531 88.2023 69.551C87.1556 68.2498 86.0708 67.2292 84.9477 66.4894C83.8499 65.7496 82.6885 65.1882 81.4633 64.8055C80.238 64.4228 78.9361 64.1932 77.5577 64.1167C76.2046 64.0145 74.7496 63.9636 73.1926 63.9636H65.3814V68.6325C65.3814 69.1427 65.19 69.5766 64.8071 69.9337C64.4495 70.2908 64.0283 70.4695 63.5435 70.4695C63.0328 70.4695 62.5989 70.2908 62.2416 69.9337C61.8841 69.5766 61.7056 69.1427 61.7056 68.6325V58.7971C61.7056 58.0317 61.8458 57.3429 62.1268 56.7305C62.4075 56.1182 62.7648 55.5951 63.1989 55.1615C63.6328 54.7278 64.1305 54.3961 64.6922 54.1665C65.2536 53.9112 65.8153 53.7838 66.377 53.7838H86.3644C87.079 53.7838 87.7555 53.9242 88.3938 54.2047C89.0318 54.4599 89.5934 54.817 90.0785 55.2763C90.5634 55.7355 90.9463 56.2713 91.2272 56.8836C91.5079 57.4959 91.6484 58.1592 91.6484 58.8737C91.6484 59.3839 91.4697 59.8177 91.1124 60.1748C90.7548 60.532 90.321 60.7106 89.8105 60.7106C89.2998 60.7106 88.8659 60.532 88.5086 60.1748C88.1511 59.8177 87.9726 59.3839 87.9726 58.8737C87.9726 58.491 87.8321 58.1721 87.5514 57.9169C87.296 57.6617 86.9897 57.5086 86.6324 57.4577H66.5684C66.2365 57.4577 65.9685 57.5469 65.7643 57.7256C65.5599 57.8786 65.4324 58.07 65.3814 58.2996V60.2897H73.1926C75.4388 60.2897 77.4682 60.4171 79.2807 60.6724C81.093 60.9276 82.7268 61.3485 84.1819 61.9353C85.6622 62.4966 86.977 63.2491 88.1257 64.1932C89.2998 65.1117 90.3466 66.2471 91.2655 67.5992C91.5206 67.931 91.6484 68.2754 91.6484 68.6325ZM109.294 68.6325C109.294 67.9692 109.524 67.4079 109.983 66.9486C110.443 66.4894 111.004 66.2598 111.668 66.2598C112.332 66.2598 112.893 66.4894 113.353 66.9486C113.812 67.4079 114.042 67.9692 114.042 68.6325C114.042 69.2958 113.812 69.8572 113.353 70.3164C112.893 70.7756 112.332 71.0053 111.668 71.0053C111.004 71.0053 110.443 70.7756 109.983 70.3164C109.524 69.8572 109.294 69.2958 109.294 68.6325ZM99.1471 68.6325C99.1471 69.1427 98.9683 69.5766 98.6108 69.9337C98.2535 70.2908 97.8196 70.4695 97.3091 70.4695C96.7984 70.4695 96.3646 70.2908 96.0073 69.9337C95.6497 69.5766 95.4712 69.1427 95.4712 68.6325V55.6207C95.4712 55.1105 95.6497 54.6766 96.0073 54.3195C96.3646 53.9624 96.7984 53.7838 97.3091 53.7838C97.5642 53.7838 97.794 53.8347 97.9984 53.9368C98.2025 54.039 98.4066 54.1665 98.6108 54.3195C100.245 55.7482 101.649 56.8709 102.823 57.6873C104.023 58.5036 105.107 59.116 106.078 59.5243C107.073 59.9325 108.005 60.1875 108.873 60.2897C109.741 60.3918 110.672 60.4427 111.668 60.4427C112.663 60.4427 113.582 60.4045 114.425 60.3279C115.293 60.2258 116.199 59.9708 117.143 59.5625C118.113 59.1542 119.185 58.5419 120.36 57.7256C121.559 56.9092 122.989 55.7738 124.648 54.3195C125.082 53.9624 125.516 53.7838 125.95 53.7838C126.461 53.7838 126.894 53.9624 127.252 54.3195C127.609 54.6766 127.788 55.1105 127.788 55.6207V68.6325C127.788 69.1427 127.609 69.5766 127.252 69.9337C126.894 70.2908 126.461 70.4695 125.95 70.4695C125.439 70.4695 125.006 70.2908 124.648 69.9337C124.291 69.5766 124.112 69.1427 124.112 68.6325V59.5625C122.964 60.481 121.853 61.2464 120.781 61.8587C119.734 62.471 118.7 62.9686 117.679 63.3513C116.684 63.7084 115.688 63.9636 114.693 64.1167C113.697 64.2697 112.689 64.3463 111.668 64.3463C110.57 64.3463 109.511 64.2697 108.49 64.1167C107.494 63.9636 106.486 63.7084 105.465 63.3513C104.469 62.9686 103.448 62.471 102.402 61.8587C101.381 61.2464 100.296 60.481 99.1471 59.5625V68.6325Z" fill="#FF1515"/>
</svg>
